<mxfile host="app.diagrams.net" modified="2023-03-27T20:30:18.360Z" agent="Mozilla/5.0 (Windows NT 10.0; Win64; x64) AppleWebKit/537.36 (KHTML, like Gecko) Chrome/111.0.0.0 Safari/537.36" etag="VnkUBfpc6oIl3T_flqM1" version="21.1.1" type="device">
  <diagram name="Page-1" id="J8rQmo_NZWAnr_RJkRP1">
    <mxGraphModel dx="1635" dy="1056" grid="0" gridSize="10" guides="1" tooltips="1" connect="1" arrows="1" fold="1" page="0" pageScale="1" pageWidth="827" pageHeight="1169" math="0" shadow="0">
      <root>
        <mxCell id="0" />
        <mxCell id="1" parent="0" />
        <mxCell id="RZxVptFT07L7Z3k8ZvkS-20" value="" style="rounded=1;whiteSpace=wrap;html=1;" vertex="1" parent="1">
          <mxGeometry x="440" y="117.5" width="296" height="285" as="geometry" />
        </mxCell>
        <mxCell id="RZxVptFT07L7Z3k8ZvkS-16" value="" style="rounded=1;whiteSpace=wrap;html=1;" vertex="1" parent="1">
          <mxGeometry x="110" y="80" width="240" height="360" as="geometry" />
        </mxCell>
        <mxCell id="RZxVptFT07L7Z3k8ZvkS-1" value="" style="shape=image;verticalLabelPosition=bottom;labelBackgroundColor=default;verticalAlign=top;aspect=fixed;imageAspect=0;image=https://www.freeiconspng.com/thumbs/xls-icon/excel-png-office-xlsx-icon-3.png;" vertex="1" parent="1">
          <mxGeometry x="-90" y="220" width="110" height="110" as="geometry" />
        </mxCell>
        <mxCell id="RZxVptFT07L7Z3k8ZvkS-2" value="" style="shape=image;verticalLabelPosition=bottom;labelBackgroundColor=default;verticalAlign=top;aspect=fixed;imageAspect=0;image=https://assets.stickpng.com/images/5848152fcef1014c0b5e4967.png;" vertex="1" parent="1">
          <mxGeometry x="140" y="112.28999999999999" width="64" height="63.75" as="geometry" />
        </mxCell>
        <mxCell id="RZxVptFT07L7Z3k8ZvkS-3" value="" style="shape=image;verticalLabelPosition=bottom;labelBackgroundColor=default;verticalAlign=top;aspect=fixed;imageAspect=0;image=https://upload.wikimedia.org/wikipedia/commons/thumb/3/38/Jupyter_logo.svg/1200px-Jupyter_logo.svg.png;" vertex="1" parent="1">
          <mxGeometry x="240" y="110" width="59" height="68.33" as="geometry" />
        </mxCell>
        <mxCell id="RZxVptFT07L7Z3k8ZvkS-4" value="" style="shape=image;verticalLabelPosition=bottom;labelBackgroundColor=default;verticalAlign=top;aspect=fixed;imageAspect=0;image=https://www.freeiconspng.com/thumbs/website-icon/website-icon-8.png;direction=south;" vertex="1" parent="1">
          <mxGeometry x="-50" y="391.96000000000004" width="59.02" height="59.02" as="geometry" />
        </mxCell>
        <mxCell id="RZxVptFT07L7Z3k8ZvkS-5" value="" style="shape=image;verticalLabelPosition=bottom;labelBackgroundColor=default;verticalAlign=top;aspect=fixed;imageAspect=0;image=https://icons.veryicon.com/png/o/education-technology/data-3/data-generation-rules.png;" vertex="1" parent="1">
          <mxGeometry x="169.75" y="229.5" width="100.5" height="100.5" as="geometry" />
        </mxCell>
        <mxCell id="RZxVptFT07L7Z3k8ZvkS-6" value="" style="shape=image;verticalLabelPosition=bottom;labelBackgroundColor=default;verticalAlign=top;aspect=fixed;imageAspect=0;image=https://upload.wikimedia.org/wikipedia/commons/thumb/b/ba/Database-postgres.svg/1200px-Database-postgres.svg.png;" vertex="1" parent="1">
          <mxGeometry x="465.99" y="162.03" width="98" height="138.48" as="geometry" />
        </mxCell>
        <mxCell id="RZxVptFT07L7Z3k8ZvkS-7" value="" style="shape=image;verticalLabelPosition=bottom;labelBackgroundColor=default;verticalAlign=top;aspect=fixed;imageAspect=0;image=https://upload.wikimedia.org/wikipedia/commons/thumb/b/ba/Database-postgres.svg/1200px-Database-postgres.svg.png;" vertex="1" parent="1">
          <mxGeometry x="618" y="162.03000000000003" width="98" height="138.48" as="geometry" />
        </mxCell>
        <mxCell id="RZxVptFT07L7Z3k8ZvkS-9" value="" style="shape=image;verticalLabelPosition=bottom;labelBackgroundColor=default;verticalAlign=top;aspect=fixed;imageAspect=0;image=https://assets.stickpng.com/images/62e14245eb4d9a9dc054c181.png;" vertex="1" parent="1">
          <mxGeometry x="833" y="-10.149999999999993" width="160" height="90.15" as="geometry" />
        </mxCell>
        <mxCell id="RZxVptFT07L7Z3k8ZvkS-10" value="" style="shape=image;verticalLabelPosition=bottom;labelBackgroundColor=default;verticalAlign=top;aspect=fixed;imageAspect=0;image=https://s3-ap-southeast-1.amazonaws.com/homepage-media/wp-content/uploads/2022/01/14084051/python_dash.png;" vertex="1" parent="1">
          <mxGeometry x="952" y="101.07000000000002" width="192" height="86.2" as="geometry" />
        </mxCell>
        <mxCell id="RZxVptFT07L7Z3k8ZvkS-12" value="" style="shape=image;verticalLabelPosition=bottom;labelBackgroundColor=default;verticalAlign=top;aspect=fixed;imageAspect=0;image=https://seeklogo.com/images/P/power-bi-microsoft-logo-E4FC8DE4A9-seeklogo.com.png;" vertex="1" parent="1">
          <mxGeometry x="762" y="494" width="190" height="90.57" as="geometry" />
        </mxCell>
        <mxCell id="RZxVptFT07L7Z3k8ZvkS-13" value="" style="shape=image;verticalLabelPosition=bottom;labelBackgroundColor=default;verticalAlign=top;aspect=fixed;imageAspect=0;image=https://www.r-project.org/logo/Rlogo.png;" vertex="1" parent="1">
          <mxGeometry x="970" y="410" width="120" height="93" as="geometry" />
        </mxCell>
        <mxCell id="RZxVptFT07L7Z3k8ZvkS-14" value="" style="shape=image;verticalLabelPosition=bottom;labelBackgroundColor=default;verticalAlign=top;aspect=fixed;imageAspect=0;image=https://www.freeiconspng.com/thumbs/xls-icon/excel-icon-small-22.png;" vertex="1" parent="1">
          <mxGeometry x="1026" y="250" width="100" height="100" as="geometry" />
        </mxCell>
        <mxCell id="RZxVptFT07L7Z3k8ZvkS-17" value="&lt;font face=&quot;Verdana&quot; style=&quot;font-size: 15px;&quot;&gt;ETL + Data Enrichment and Generation&lt;/font&gt;" style="text;html=1;strokeColor=none;fillColor=none;align=center;verticalAlign=middle;whiteSpace=wrap;rounded=0;" vertex="1" parent="1">
          <mxGeometry x="131" y="380" width="203" height="30" as="geometry" />
        </mxCell>
        <mxCell id="RZxVptFT07L7Z3k8ZvkS-19" value="" style="shape=flexArrow;endArrow=classic;html=1;rounded=0;fillColor=#dae8fc;strokeColor=#6c8ebf;" edge="1" parent="1">
          <mxGeometry width="50" height="50" relative="1" as="geometry">
            <mxPoint x="30" y="275" as="sourcePoint" />
            <mxPoint x="100" y="275" as="targetPoint" />
          </mxGeometry>
        </mxCell>
        <mxCell id="RZxVptFT07L7Z3k8ZvkS-21" value="" style="endArrow=none;html=1;rounded=0;entryX=0.5;entryY=0;entryDx=0;entryDy=0;exitX=0.5;exitY=1;exitDx=0;exitDy=0;fillColor=#f5f5f5;strokeColor=#999999;" edge="1" parent="1" source="RZxVptFT07L7Z3k8ZvkS-20" target="RZxVptFT07L7Z3k8ZvkS-20">
          <mxGeometry width="50" height="50" relative="1" as="geometry">
            <mxPoint x="536" y="261.52" as="sourcePoint" />
            <mxPoint x="586" y="211.52" as="targetPoint" />
          </mxGeometry>
        </mxCell>
        <mxCell id="RZxVptFT07L7Z3k8ZvkS-22" value="&lt;font face=&quot;Verdana&quot; style=&quot;font-size: 15px;&quot;&gt;Consumption&lt;/font&gt;" style="text;html=1;strokeColor=none;fillColor=none;align=center;verticalAlign=middle;whiteSpace=wrap;rounded=0;" vertex="1" parent="1">
          <mxGeometry x="596" y="361.52" width="129.75" height="30" as="geometry" />
        </mxCell>
        <mxCell id="RZxVptFT07L7Z3k8ZvkS-23" value="&lt;font face=&quot;Verdana&quot; style=&quot;font-size: 15px;&quot;&gt;Landing Zone&lt;/font&gt;" style="text;html=1;strokeColor=none;fillColor=none;align=center;verticalAlign=middle;whiteSpace=wrap;rounded=0;" vertex="1" parent="1">
          <mxGeometry x="450.12" y="361.52" width="129.75" height="30" as="geometry" />
        </mxCell>
        <mxCell id="RZxVptFT07L7Z3k8ZvkS-25" value="&lt;font size=&quot;1&quot; face=&quot;Verdana&quot; style=&quot;&quot;&gt;&lt;b style=&quot;font-size: 18px;&quot;&gt;OLTP&lt;/b&gt;&lt;/font&gt;" style="text;html=1;strokeColor=none;fillColor=none;align=center;verticalAlign=middle;whiteSpace=wrap;rounded=0;" vertex="1" parent="1">
          <mxGeometry x="450.12" y="291.52" width="129.75" height="30" as="geometry" />
        </mxCell>
        <mxCell id="RZxVptFT07L7Z3k8ZvkS-26" value="&lt;font size=&quot;1&quot; face=&quot;Verdana&quot; style=&quot;&quot;&gt;&lt;b style=&quot;font-size: 18px;&quot;&gt;OLAP&lt;/b&gt;&lt;/font&gt;" style="text;html=1;strokeColor=none;fillColor=none;align=center;verticalAlign=middle;whiteSpace=wrap;rounded=0;" vertex="1" parent="1">
          <mxGeometry x="596" y="291.52" width="129.75" height="30" as="geometry" />
        </mxCell>
        <mxCell id="RZxVptFT07L7Z3k8ZvkS-27" value="" style="shape=flexArrow;endArrow=classic;html=1;rounded=0;fillColor=#dae8fc;strokeColor=#6c8ebf;" edge="1" parent="1">
          <mxGeometry width="50" height="50" relative="1" as="geometry">
            <mxPoint x="20" y="420" as="sourcePoint" />
            <mxPoint x="100" y="360" as="targetPoint" />
          </mxGeometry>
        </mxCell>
        <mxCell id="RZxVptFT07L7Z3k8ZvkS-29" value="" style="shape=flexArrow;endArrow=classic;html=1;rounded=0;fillColor=#dae8fc;strokeColor=#6c8ebf;" edge="1" parent="1">
          <mxGeometry width="50" height="50" relative="1" as="geometry">
            <mxPoint x="354" y="270" as="sourcePoint" />
            <mxPoint x="430" y="270" as="targetPoint" />
          </mxGeometry>
        </mxCell>
        <mxCell id="RZxVptFT07L7Z3k8ZvkS-30" value="" style="shape=flexArrow;endArrow=classic;html=1;rounded=0;fillColor=#d5e8d4;strokeColor=#82b366;" edge="1" parent="1">
          <mxGeometry width="50" height="50" relative="1" as="geometry">
            <mxPoint x="750" y="230" as="sourcePoint" />
            <mxPoint x="870" y="90" as="targetPoint" />
          </mxGeometry>
        </mxCell>
        <mxCell id="RZxVptFT07L7Z3k8ZvkS-35" value="&lt;font style=&quot;font-size: 11px;&quot; face=&quot;Verdana&quot;&gt;PostgreSQL connector&lt;/font&gt;" style="edgeLabel;html=1;align=center;verticalAlign=middle;resizable=0;points=[];labelBackgroundColor=none;fontStyle=1;fontSize=13;" vertex="1" connectable="0" parent="RZxVptFT07L7Z3k8ZvkS-30">
          <mxGeometry x="-0.1403" y="-4" relative="1" as="geometry">
            <mxPoint x="15" y="-23" as="offset" />
          </mxGeometry>
        </mxCell>
        <mxCell id="RZxVptFT07L7Z3k8ZvkS-31" value="" style="shape=flexArrow;endArrow=classic;html=1;rounded=0;fillColor=#d5e8d4;strokeColor=#82b366;" edge="1" parent="1">
          <mxGeometry width="50" height="50" relative="1" as="geometry">
            <mxPoint x="760" y="260" as="sourcePoint" />
            <mxPoint x="950" y="160" as="targetPoint" />
          </mxGeometry>
        </mxCell>
        <mxCell id="RZxVptFT07L7Z3k8ZvkS-32" value="" style="shape=flexArrow;endArrow=classic;html=1;rounded=0;fillColor=#d5e8d4;strokeColor=#82b366;" edge="1" parent="1">
          <mxGeometry width="50" height="50" relative="1" as="geometry">
            <mxPoint x="760" y="290" as="sourcePoint" />
            <mxPoint x="1010" y="300" as="targetPoint" />
          </mxGeometry>
        </mxCell>
        <mxCell id="RZxVptFT07L7Z3k8ZvkS-33" value="" style="shape=flexArrow;endArrow=classic;html=1;rounded=0;fillColor=#d5e8d4;strokeColor=#82b366;" edge="1" parent="1">
          <mxGeometry width="50" height="50" relative="1" as="geometry">
            <mxPoint x="750" y="350" as="sourcePoint" />
            <mxPoint x="850" y="490" as="targetPoint" />
          </mxGeometry>
        </mxCell>
        <mxCell id="RZxVptFT07L7Z3k8ZvkS-34" value="" style="shape=flexArrow;endArrow=classic;html=1;rounded=0;fillColor=#d5e8d4;strokeColor=#82b366;" edge="1" parent="1">
          <mxGeometry width="50" height="50" relative="1" as="geometry">
            <mxPoint x="770" y="321" as="sourcePoint" />
            <mxPoint x="950" y="430" as="targetPoint" />
          </mxGeometry>
        </mxCell>
        <mxCell id="RZxVptFT07L7Z3k8ZvkS-36" value="&lt;font style=&quot;font-size: 11px;&quot; face=&quot;Verdana&quot;&gt;Psycopg2&lt;/font&gt;" style="edgeLabel;html=1;align=center;verticalAlign=middle;resizable=0;points=[];labelBackgroundColor=none;fontStyle=1;fontSize=13;" vertex="1" connectable="0" parent="1">
          <mxGeometry x="839.9976922228034" y="220.00226876294798" as="geometry" />
        </mxCell>
        <mxCell id="RZxVptFT07L7Z3k8ZvkS-37" value="&lt;font style=&quot;font-size: 11px;&quot; face=&quot;Verdana&quot;&gt;Power Query&lt;/font&gt;" style="edgeLabel;html=1;align=center;verticalAlign=middle;resizable=0;points=[];labelBackgroundColor=none;fontStyle=1;fontSize=13;" vertex="1" connectable="0" parent="1">
          <mxGeometry x="889.9976922228034" y="297.002268762948" as="geometry">
            <mxPoint x="-20" y="-4" as="offset" />
          </mxGeometry>
        </mxCell>
        <mxCell id="RZxVptFT07L7Z3k8ZvkS-39" value="&lt;font style=&quot;font-size: 11px;&quot; face=&quot;Verdana&quot;&gt;Power Query&lt;/font&gt;" style="edgeLabel;html=1;align=center;verticalAlign=middle;resizable=0;points=[];labelBackgroundColor=none;fontStyle=1;fontSize=13;" vertex="1" connectable="0" parent="1">
          <mxGeometry x="818.9976922228034" y="418.002268762948" as="geometry">
            <mxPoint x="-20" y="-4" as="offset" />
          </mxGeometry>
        </mxCell>
        <mxCell id="RZxVptFT07L7Z3k8ZvkS-40" value="&lt;div style=&quot;text-align: center;&quot;&gt;&lt;span style=&quot;background-color: initial;&quot;&gt;&lt;b style=&quot;&quot;&gt;&lt;font style=&quot;font-size: 11px;&quot; face=&quot;Verdana&quot;&gt;RPostgreSQL&lt;/font&gt;&lt;/b&gt;&lt;/span&gt;&lt;/div&gt;" style="text;whiteSpace=wrap;html=1;" vertex="1" parent="1">
          <mxGeometry x="810" y="350" width="90" height="30" as="geometry" />
        </mxCell>
        <mxCell id="RZxVptFT07L7Z3k8ZvkS-41" value="&lt;font face=&quot;Verdana&quot; size=&quot;1&quot; style=&quot;&quot;&gt;&lt;b style=&quot;font-size: 16px;&quot;&gt;Dashboards and Reports&lt;/b&gt;&lt;/font&gt;" style="text;html=1;strokeColor=#666666;fillColor=#f5f5f5;align=center;verticalAlign=middle;whiteSpace=wrap;rounded=0;fontColor=#333333;" vertex="1" parent="1">
          <mxGeometry x="805" y="606" width="264" height="30" as="geometry" />
        </mxCell>
        <mxCell id="RZxVptFT07L7Z3k8ZvkS-42" value="&lt;font style=&quot;font-size: 13px;&quot; face=&quot;Verdana&quot;&gt;- Medical Encyclopedia (Medline Plus)&lt;br&gt;&lt;div style=&quot;&quot;&gt;&lt;span style=&quot;background-color: initial;&quot;&gt;- Directory and Knowledge Base (Mayo Clinic)&amp;nbsp;&lt;/span&gt;&lt;/div&gt;&lt;div style=&quot;&quot;&gt;- General Research&lt;/div&gt;&lt;/font&gt;" style="text;html=1;strokeColor=none;fillColor=none;align=left;verticalAlign=middle;whiteSpace=wrap;rounded=0;" vertex="1" parent="1">
          <mxGeometry x="-79" y="462" width="266" height="79" as="geometry" />
        </mxCell>
        <mxCell id="RZxVptFT07L7Z3k8ZvkS-43" value="&lt;font face=&quot;Verdana&quot;&gt;&lt;span style=&quot;font-size: 13px;&quot;&gt;Statistical Dataset&lt;/span&gt;&lt;/font&gt;" style="text;html=1;strokeColor=none;fillColor=none;align=left;verticalAlign=middle;whiteSpace=wrap;rounded=0;" vertex="1" parent="1">
          <mxGeometry x="-90" y="328.01" width="144" height="33.51" as="geometry" />
        </mxCell>
      </root>
    </mxGraphModel>
  </diagram>
</mxfile>
